HIERARCHY
ROOT Hips
{
	OFFSET -0.001795 -0.223333 0.028219
	CHANNELS 6 Xposition Yposition Zposition Zrotation Yrotation Xrotation 
	JOINT LeftUpLeg
	{
		OFFSET 0.069520 -0.091406 -0.006815
		CHANNELS 3 Zrotation Yrotation Xrotation
		JOINT LeftLeg
		{
			OFFSET 0.034277 -0.375199 -0.004496
			CHANNELS 3 Zrotation Yrotation Xrotation
			JOINT LeftFoot
			{
				OFFSET -0.013596 -0.397961 -0.043693
				CHANNELS 3 Zrotation Yrotation Xrotation
				JOINT LeftToe
				{
					OFFSET 0.026358 -0.055791 0.119288
					CHANNELS 3 Zrotation Yrotation Xrotation
					End Site
					{
						OFFSET 0.000000 0.000000 0.000000
					}
				}
			}
		}
	}
	JOINT RightUpLeg
	{
		OFFSET -0.067670 -0.090522 -0.004320
		CHANNELS 3 Zrotation Yrotation Xrotation
		JOINT RightLeg
		{
			OFFSET -0.038290 -0.382569 -0.008850
			CHANNELS 3 Zrotation Yrotation Xrotation
			JOINT RightFoot
			{
				OFFSET 0.015774 -0.398415 -0.042312
				CHANNELS 3 Zrotation Yrotation Xrotation
				JOINT RightToe
				{
					OFFSET -0.025372 -0.048144 0.123348
					CHANNELS 3 Zrotation Yrotation Xrotation
					End Site
					{
						OFFSET 0.000000 0.000000 0.000000
					}
				}
			}
		}
	}
	JOINT Spine
	{
		OFFSET -0.002533 0.108963 -0.026696
		CHANNELS 3 Zrotation Yrotation Xrotation
		JOINT Spine1
		{
			OFFSET 0.005487 0.135180 0.001092
			CHANNELS 3 Zrotation Yrotation Xrotation
			JOINT Spine2
			{
				OFFSET 0.001457 0.052922 0.025425
				CHANNELS 3 Zrotation Yrotation Xrotation
				JOINT Neck
				{
					OFFSET -0.002778 0.213870 -0.042857
					CHANNELS 3 Zrotation Yrotation Xrotation
					JOINT Head
					{
						OFFSET 0.005152 0.064970 0.051349
						CHANNELS 3 Zrotation Yrotation Xrotation
						End Site
						{
							OFFSET 0.000000 0.000000 0.000000
						}
					}
				}
				JOINT LeftShoulder
				{
					OFFSET 0.078845 0.121749 -0.034090
					CHANNELS 3 Zrotation Yrotation Xrotation
					JOINT LeftArm
					{
						OFFSET 0.090977 0.030469 -0.008868
						CHANNELS 3 Zrotation Yrotation Xrotation
						JOINT LeftForeArm
						{
							OFFSET 0.259612 -0.012772 -0.027456
							CHANNELS 3 Zrotation Yrotation Xrotation
							JOINT LeftHand
							{
								OFFSET 0.249234 0.008986 -0.001171
								CHANNELS 3 Zrotation Yrotation Xrotation
								End Site
								{
									OFFSET 0.000000 0.000000 0.000000
								}
							}
						}
					}
				}
				JOINT RightShoulder
				{
					OFFSET -0.081759 0.118833 -0.038615
					CHANNELS 3 Zrotation Yrotation Xrotation
					JOINT RightArm
					{
						OFFSET -0.096012 0.032551 -0.009143
						CHANNELS 3 Zrotation Yrotation Xrotation
						JOINT RightForeArm
						{
							OFFSET -0.253742 -0.013329 -0.021401
							CHANNELS 3 Zrotation Yrotation Xrotation
							JOINT RightHand
							{
								OFFSET -0.255298 0.007772 -0.005559
								CHANNELS 3 Zrotation Yrotation Xrotation
								End Site
								{
									OFFSET 0.000000 0.000000 0.000000
								}
							}
						}
					}
				}
			}
		}
	}
}
MOTION
Frames: 7
Frame Time: 0.050000
-0.004564 0.558773 0.020062 -1.545818 -18.056772 33.531683 20.656634 1.702752 55.960294 -31.025983 -10.023834 -79.493968 55.824612 33.123377 96.172725 0.000000 0.000000 0.000000 -15.547308 10.535190 50.534393 18.068927 12.237800 -79.590267 -64.715230 -25.708661 120.092542 0.000000 0.000000 0.000000 6.817002 6.606803 -37.735714 -9.635880 6.148617 -93.204662 -1.846824 -14.061973 110.805628 -36.792406 4.127586 -112.722668 0.000000 0.000000 0.000000 -27.565127 17.647417 -0.358957 -41.907871 -3.274670 -28.438027 92.203403 64.316814 90.947194 0.000000 0.000000 0.000000 -11.820419 -28.134239 -20.564822 38.238419 -36.401937 -31.828248 -55.399499 -7.585604 3.707652 0.000000 0.000000 0.000000 
-0.003501 0.556743 0.019856 -1.341237 -17.468140 32.992436 20.882619 1.320824 56.023640 -30.423116 -9.936026 -79.744786 57.049142 33.139298 96.956168 0.000000 0.000000 0.000000 -16.346537 10.799391 50.607193 20.078198 13.024160 -78.581335 -65.734742 -26.125632 119.695108 0.000000 0.000000 0.000000 6.675828 6.553468 -38.218467 -9.712546 5.767466 -93.285449 -1.644000 -14.211306 111.757148 -39.792263 4.083255 -112.465256 0.000000 0.000000 0.000000 -27.021065 17.716154 -0.610689 -40.387599 -2.896452 -28.570800 91.671999 60.538665 84.773159 0.000000 0.000000 0.000000 -12.686653 -28.004070 -20.705307 38.345952 -37.078072 -32.768600 -57.703537 -5.451858 3.238458 0.000000 0.000000 0.000000 
-0.002403 0.555841 0.019698 -1.562391 -17.669719 32.624095 20.456855 1.706699 56.655241 -29.025938 -9.256402 -80.339481 56.517333 33.032313 96.915249 0.000000 0.000000 0.000000 -17.398715 11.508618 50.189802 21.697189 13.961761 -78.255219 -68.972724 -26.073864 120.791505 0.000000 0.000000 0.000000 7.537717 6.598144 -37.438965 -9.681572 6.219419 -95.033052 -1.457879 -14.249069 112.969587 -41.377783 4.291537 -111.735223 0.000000 0.000000 0.000000 -26.132441 17.871832 -1.111877 -39.733062 -1.419022 -28.725123 91.988623 55.872254 78.848105 0.000000 0.000000 0.000000 -14.956301 -28.006214 -20.673501 37.165901 -37.908158 -32.072460 -59.049118 -4.516738 2.585865 0.000000 0.000000 0.000000 
-0.001896 0.554692 0.019833 -1.722529 -17.906462 32.295464 19.963042 2.068439 56.762598 -28.027510 -8.617843 -80.439274 56.081504 32.981774 96.851835 0.000000 0.000000 0.000000 -18.548660 12.150321 49.286078 23.353995 14.500416 -76.136011 -68.811781 -26.132019 120.488154 0.000000 0.000000 0.000000 8.107334 6.925985 -37.962755 -9.085890 6.396335 -93.179040 -0.616844 -13.528242 111.835774 -42.182937 4.154896 -111.489977 0.000000 0.000000 0.000000 -26.527732 17.967334 -1.141024 -38.555047 -0.694394 -28.454614 92.673007 53.154712 75.049135 0.000000 0.000000 0.000000 -15.957899 -27.829983 -20.334949 35.562824 -37.568363 -30.697620 -60.921579 -5.478143 3.026852 0.000000 0.000000 0.000000 
-0.002716 0.554697 0.020701 -1.611850 -17.746220 32.141947 19.673461 2.111504 56.576864 -27.543535 -8.310041 -80.260974 57.069916 33.066429 97.407032 0.000000 0.000000 0.000000 -18.421955 11.852341 48.772874 23.073343 14.231500 -75.504640 -70.726451 -25.445385 121.939409 0.000000 0.000000 0.000000 8.175709 7.173311 -38.920649 -9.272868 6.040045 -92.328390 -0.256034 -13.635621 112.095561 -43.827082 4.201727 -111.278038 0.000000 0.000000 0.000000 -27.525834 18.472314 -1.081334 -38.494115 -1.036000 -29.134428 94.249245 50.998155 75.120753 0.000000 0.000000 0.000000 -16.839382 -27.655006 -20.369157 34.326700 -38.115363 -30.398729 -62.614434 -5.667707 2.847403 0.000000 0.000000 0.000000 
-0.004873 0.554648 0.022370 -1.406061 -18.296327 31.804290 19.237642 2.586270 56.875352 -26.891882 -7.781001 -79.903765 56.056898 32.783263 97.621506 0.000000 0.000000 0.000000 -18.539801 12.182918 48.899517 22.622991 13.983718 -75.190960 -71.001158 -25.117228 122.344120 0.000000 0.000000 0.000000 8.559094 7.605873 -39.618973 -10.030658 5.838145 -92.481179 0.683121 -13.956100 112.674703 -42.637480 4.388918 -110.574914 0.000000 0.000000 0.000000 -28.648348 18.055830 -0.258279 -38.415543 -1.975790 -29.547425 97.408103 51.409007 78.414813 0.000000 0.000000 0.000000 -18.546991 -27.475455 -20.304808 32.659337 -39.984503 -30.284415 -63.465546 -5.492221 2.127585 0.000000 0.000000 0.000000 
-0.007802 0.555708 0.023882 -0.843857 -17.750854 31.328674 19.647753 2.048203 56.382957 -27.181818 -7.897157 -78.872115 56.817570 33.354158 96.750531 0.000000 0.000000 0.000000 -17.713398 11.483865 49.442588 22.063692 13.464180 -74.663565 -73.364921 -25.519817 121.856390 0.000000 0.000000 0.000000 8.273068 7.787487 -40.942752 -11.013810 4.780170 -90.383829 1.263025 -14.325146 111.594709 -42.747553 4.321610 -110.574651 0.000000 0.000000 0.000000 -31.167342 18.264519 0.680089 -38.491350 -4.851570 -29.641995 102.806353 52.973693 87.834499 0.000000 0.000000 0.000000 -18.942258 -27.138669 -20.007603 31.287009 -40.953844 -30.070136 -64.726567 -6.721866 2.216152 0.000000 0.000000 0.000000 
